<svg width="12.000000" height="11.500000" viewBox="0 0 12 11.5" fill="none" xmlns="http://www.w3.org/2000/svg" xmlns:xlink="http://www.w3.org/1999/xlink">
	<desc>
			Created with Pixso.
	</desc>
	<defs/>
	<path id="Vector" d="M3.9 0.79C4.55 0.27 5.42 0 6.34 0C7.25 0 8.1 0.22 8.75 0.74C9.41 1.26 9.82 2.04 9.9 3.03L8.9 3.11C8.84 2.36 8.55 1.85 8.13 1.52C7.7 1.18 7.09 1 6.34 1C5.61 1 4.97 1.21 4.53 1.57C4.09 1.92 3.82 2.42 3.82 3.07C3.82 3.69 4.11 4.08 4.46 4.36C4.52 4.41 4.59 4.46 4.65 4.5L3.24 4.5C2.99 4.12 2.82 3.65 2.82 3.07C2.82 2.11 3.24 1.33 3.9 0.79ZM8.82 7.5L9.89 7.5C9.96 7.73 9.99 8 10 8.3C10 9.27 9.62 10.09 8.93 10.66C8.25 11.22 7.31 11.5 6.22 11.5C5.12 11.5 4.24 11.18 3.59 10.62C2.95 10.05 2.6 9.27 2.5 8.42L3.49 8.29C3.57 8.95 3.83 9.49 4.26 9.87C4.68 10.24 5.31 10.5 6.22 10.5C7.15 10.5 7.84 10.26 8.3 9.89C8.74 9.52 9 8.99 9 8.3C9 7.97 8.93 7.71 8.82 7.5L8.82 7.5ZM0 6.5L12 6.5L12 5.5L0 5.5L0 6.5Z" fill="#FCFCFC" fill-opacity="1.000000" fill-rule="evenodd"/>
</svg>
